PathFileType	4	(X/Y/Z)	/home/abdul/Desktop/myosuite/custom_workspace/IK/output/S3_12_1.trc
DataRate	CameraRate	NumFrames	NumMarkers	Units	OrigDataRate	OrigDataStartFrame	OrigNumFrames
200.0	200.0	56	3	mm	200.0	1	786
Frame#	Time	V_Shoulder			V_Elbow			V_Wrist		
		X1	Y1	Z1	X2	Y2	Z2	X3	Y3	Z3

1	0.0	-135.53462429073684	653.1474101938817	304.1332706824938	-319.8089082569305	525.9410942957509	-3.3128675236913736	-284.8435018293694	228.52312323738477	30.642106626417377
2	0.005	-135.50820323633863	653.1510017829512	304.10457936578194	-319.89323201085665	526.0428098002791	-3.3033688966452495	-285.0128946626189	228.58506438111112	30.649707970958122
3	0.01	-135.48207239389217	653.1531882289208	304.07574573451046	-319.986420509249	526.148423646024	-3.2905307751221056	-285.1734014161083	228.65386108977026	30.665364861527273
4	0.015	-135.45628784825809	653.1538788421343	304.0468110677939	-320.0885652969571	526.257748515567	-3.2742478099334544	-285.32382863198916	228.7297013747691	30.689450728647703
5	0.02	-135.43090518642433	653.1529827428939	304.0178171202863	-320.1997309043078	526.3705742271591	-3.254421485322876	-285.4629518211379	228.8127615269036	30.72232785477523
6	0.025	-135.40597927514477	653.1504090625273	303.9888060079634	-320.31995368131305	526.4866674474421	-3.230960606596609	-285.5895178540979	228.90320518738025	30.76434570727355
7	0.03	-135.38156403729172	653.1460671440665	303.9598200942889	-320.44924071548303	526.6057714798055	-3.203781764340757	-285.7022475284205	229.00118243685648	30.815839258698432
8	0.035	-135.3577122278655	653.1398667414807	303.9309018774068	-320.58756884170225	526.7276061323953	-3.1728097719445163	-285.7998383088224	229.10682890711976	30.877127300823815
9	0.04	-135.33447521060256	653.1317182164248	303.9020938789941	-320.7348837523482	526.8518676695285	-3.137978073229961	-285.8809672356136	229.22026492010525	30.948510759161856
10	0.045	-135.31190273612017	653.1215327314877	303.87343853538863	-320.89109921548663	526.9782288499612	-3.0992291170949144	-285.94429399585323	229.34159465901212	31.030271015034046
11	0.05	-135.29004272252666	653.1092224389573	303.8449780915924	-321.05609640856807	527.1063390551233	-3.056514696204985	-285.98846415067794	229.4709053763134	31.122668242537053
12	0.055	-135.2689410394108	653.0947006641572	303.8167544987243	-321.22972337458384	527.2358245100565	-3.0097962469226207	-286.0121125112188	229.60826664346612	31.225939768011443
13	0.06	-135.24864129610717	653.0778820824586	303.7888093154742	-321.41179460711294	527.3662885993992	-2.9590451078338553	-286.0138666544919	229.75372964710982	31.34029845986076
14	0.065	-135.22918463511127	653.0586828891213	303.76118361407896	-321.6020907701164	527.4973122803292	-2.904242734425809	-285.99235056962266	229.90732653649894	31.465931156778385
15	0.07	-135.21060953149254	653.0370209611774	303.73391789131483	-321.800358557708	527.628454593927	-2.845380867678621	-285.9461884237492	230.0690698268382	31.60299714261701
16	0.075	-135.19295159912414	653.0128160106304	303.70705198496194	-322.0063106984596	527.7592532759459	-2.7824616545630523	-285.8740084359601	230.2389518630838	31.751626676276597
17	0.08	-135.17624340451616	652.9859897283114	303.6806249961668	-322.21962610808424	527.8892254674861	-2.71549771867811	-285.7744468466644	230.41694434863598	31.911919585087873
18	0.085	-135.16051428900388	652.9564659178001	303.65467521808836	-322.4399501935925	528.0178685255559	-2.644512179520346	-285.6461519688741	230.60299794317342	32.08394393022634
19	0.09	-135.14579020000488	652.9241706188924	303.6292400711772	-322.6668953112296	528.1446609329886	-2.5695386191463854	-285.4877883070114	230.79704193367567	32.26773475270322
20	0.095	-135.13209353201864	652.8890322201706	303.60435604539657	-322.9000413796915	528.2690633066463	-2.490620995271504	-285.2980407280458	230.99898398243624	32.46329290844142
21	0.1	-135.11944297800042	652.8509815603048	303.58005864965395	-323.13893664927684	528.3905195023053	-2.407813500137989	-285.0756186690284	231.2087099555914	32.67058400085425
22	0.105	-135.10785339169695	652.8099520177929	303.5563823686705	-323.38309862677704	528.5084578140784	-2.3211803647861196	-284.8192603644246	231.42608383537817	32.88953741919853
23	0.11	-135.09733566148586	652.7658795889224	303.5333606274734	-323.6320151550319	528.6222922656838	-2.230795608666389	-284.5277370760727	231.6509477189859	33.120045490771425
24	0.115	-135.08789659621343	652.7187029538139	303.5110257636538	-323.88514564519636	528.7314239903374	-2.1367427348421995	-284.199857308109	231.8831219064839	33.36196275475791
25	0.12	-135.07953882347678	652.6683635304789	303.48940900748875	-324.14192245887796	528.8352426955071	-2.0391143713462885	-283.834470988816	232.12240507989293	33.6151053652143
26	0.125	-135.07226070074822	652.614805516907	303.4685404699869	-324.4017524364151	528.9331282082514	-1.9380118595699134	-283.4304736010729	232.3685745750189	33.87925063028926
27	0.13	-135.06605623968719	652.5579759212608	303.44844913886783	-324.6640185666891	529.0244520963547	-1.833544790879234	-282.98681024291847	232.62138674719102	34.15413669433964
28	0.135	-135.06091504393657	652.4978245803364	303.42916288245016	-324.92808179299107	529.108579359981	-1.725830492967308	-282.50247959968755	232.88057743154127	34.43946236909161
29	0.14	-135.0568222606474	652.4343041665105	303.41070846137603	-325.193282948616	529.1848701880964	-1.6149934677603799	-281.976537809249	233.1458624979304	34.734887119432074
30	0.145	-135.0537585459244	652.3673701834633	303.3931115480607	-325.4589448150274	529.2526817734636	-1.5011647830021957	-281.4081022020653	233.4169385000744	35.04003120878963
31	0.15	-135.05170004433478	652.2969809510331	303.3763967537138	-325.724374294635	529.3113701795914	-1.3844814199382718	-280.79635489810624	233.69348341785405	35.35447600838248
32	0.155	-135.05061838256935	652.2230975796069	303.3605876627408	-325.9888646894673	529.3602922526309	-1.2650855798114318	-280.1405462430852	233.97515749120333	35.67776447387514
33	0.16	-135.05048067729527	652.1456839345238	303.3457068742929	-326.251698076292	529.3988075708488	-1.1431239521590033	-279.43999806704494	234.26160414337664	36.009401792199306
34	0.165	-135.05124955718864	652.0647065910025	303.33177605069613	-326.5121477680616	529.4262804239889	-1.018746948169083	-278.69410674899575	234.55245099079136	36.34885620046144
35	0.17	-135.0528831990849	651.980134780162	303.31881597245575	-326.76948085092926	529.4420818145394	-0.892107902606547	-277.9023460721	234.84731093603793	36.695559977985454
36	0.175	-135.0553353781368	651.8919403267479	303.306846599495	-327.0229607855115	529.4455914726818	-0.7633622480574669	-277.06426985479806	235.14578334004807	37.048910611627136
37	0.18	-135.0585555318203	651.800097579207	303.2958871382559	-327.2718500605571	529.4361998764883	-0.6326666654615902	-276.17951434427505	235.44745526881832	37.40827213355526
38	0.185	-135.0624888375836	651.7045833327951	303.28595611425857	-327.5154128867357	529.4133102687723	-0.5001782151051604	-275.2478003597673	235.75190280950636	37.77297662972751
39	0.19	-135.0670763038864	651.6053767464267	303.2770714496829	-327.75291791787794	529.3763406618784	-0.3660534524289485	-274.2689351743957	236.05869245015612	38.142325916304365
40	0.195	-135.07225487433456	651.502459253998	303.2692505455148	-327.9836409866907	529.3247258216259	-0.23044753316781197	-273.2428141254794	236.36738251676968	38.51559338024781
41	0.2	-135.0779575445711	651.3958144709369	303.2625103677662	-328.2068678417356	529.2579192215901	-0.09351331247646755	-272.1694219446167	236.67752466093475	38.89202597935179
42	0.205	-135.08411349154446	651.2854280967426	303.2568675372608	-328.4218968723014	529.1753949589315	0.04459955718900055	-271.048833800213	236.98866539074018	39.270846395954365
43	0.21	-135.09064821473575	651.1712878142865	303.25233842245456	-328.62804180772207	529.0766496230432	0.18374552457515492	-269.88121604657226	237.30034763727463	39.651255337594925
44	0.215	-135.09748368888862	651.0533831866497	303.2489392347391	-328.8246343776918	528.9612041084075	0.3237840295987571	-268.66682667514306	237.6121123486081	40.03243397691213
45	0.22	-135.104538527752	650.931705552271	303.2466861256639	-329.01102692021004	528.8286053632105	0.4645803798201218	-267.406015465006	237.92350010280796	40.41354652213483
46	0.225	-135.11172815831085	650.8062479191636	303.24559528549497	-329.1865949239501	528.6784280654708	0.6060066084569442	-266.0992238311973	238.23405273124243	40.79374290860828
47	0.23	-135.1189650049511	650.6770048589626	303.2456830425219	-329.35073949208555	528.5102762186929	0.7479423089946344	-264.74698437096913	238.54331494318114	41.17216160092665
48	0.235	-135.12615868297533	650.5439724015279	303.24696596251175	-329.5028897149306	528.3237846593478	0.8902754415002239	-263.34992010958604	238.8508359425161	41.54793249441755
49	0.24	-135.1332162008603	650.4071479308232	303.2494609477073	-329.6425049391456	528.1186204688258	1.032903105827934	-261.90874344872526	239.15617102729806	41.92017990395138
50	0.245	-135.14004217062242	650.2665300827548	303.2531853347601	-329.7690769217328	527.8944842828828	1.1757322770160474	-260.4242548219905	239.45888316271822	42.28802562733266
51	0.25	-135.14653902563768	650.1221186456282	303.2581569909926	-329.8821318575885	527.6511114920222	1.3186804983168603	-258.8973410634427	239.75854451816355	42.65059206987836
52	0.255	-135.15260724524217	649.9739144638448	303.264394408385	-329.981232269995	527.3882733267039	1.4616765274739407	-257.32897349639387	240.05473795903515	43.007005416204024
53	0.26	-135.15814558542348	649.8219193454241	303.2719167946874	-330.06597875410955	527.1057778217673	1.604660932063954	-255.72020575098745	240.34705848414748	43.356398834726136
54	0.265	-135.1630513148995	649.6661359738963	303.28074416106944	-330.13601156424943	526.8034706549686	1.747586629952865	-254.0721713203036	240.63511459971886	43.697915699953896
55	0.27	-135.16722045586906	649.5065678250647	303.29089740572834	-330.1910120365644	526.4812358550853	1.8904193711781172	-252.38608086585592	240.91852962121942	44.030712817286776
56	0.275	-135.17054802871135	649.3432190890941	303.30239839289237	-330.2307038395372	526.1389963756158	2.033138157858305	-250.66321928440135	241.19694289466685	44.353963634760945
